<svg width="80" height="80" viewBox="0 0 80 80" fill="none" xmlns="http://www.w3.org/2000/svg">
<rect x="1" y="1" width="78" height="78" rx="39" fill="white"/>
<rect x="1" y="1" width="78" height="78" rx="39" stroke="#00BEC5" stroke-width="2"/>
<path d="M40.2541 40.7632C44.6236 40.7632 48.1657 37.221 48.1657 32.8516C48.1657 28.4821 44.6236 24.9399 40.2541 24.9399C35.8846 24.9399 32.3425 28.4821 32.3425 32.8516C32.3425 37.221 35.8846 40.7632 40.2541 40.7632Z" fill="url(#paint0_linear_324_2840)"/>
<path d="M53.729 32.9103C53.729 34.238 51.1221 35.1331 50.7334 36.33C50.3313 37.5705 51.8995 39.8268 51.1489 40.8594C50.3916 41.9021 47.7545 41.1042 46.7123 41.8619C45.6803 42.6128 45.63 45.3721 44.3902 45.7744C43.1939 46.1633 41.5386 43.974 40.2117 43.974C38.8847 43.974 37.2294 46.1633 36.0332 45.7744C34.7933 45.3721 34.7431 42.6128 33.711 41.8619C32.6689 41.1042 30.0318 41.9021 29.2745 40.8594C28.5239 39.8268 30.0921 37.5705 29.69 36.33C29.3013 35.1331 26.6943 34.2346 26.6943 32.9103C26.6943 31.586 29.3013 30.6875 29.69 29.4906C30.0921 28.2502 28.5239 25.9939 29.2745 24.9612C30.0318 23.9186 32.6689 24.7165 33.711 23.9588C34.7431 23.2078 34.7933 20.4486 36.0332 20.0463C37.2294 19.6574 38.8847 21.8467 40.2117 21.8467C41.5386 21.8467 43.1939 19.6574 44.3902 20.0463C45.63 20.4486 45.6803 23.2078 46.7123 23.9588C47.7545 24.7165 50.3916 23.9186 51.1489 24.9612C51.8995 25.9939 50.3313 28.2502 50.7334 29.4906C51.1187 30.6842 53.729 31.5827 53.729 32.9103Z" stroke="#292929" stroke-width="2" stroke-miterlimit="10"/>
<path d="M39.9998 46.3408L45.6661 59.292C46.0448 60.1569 47.2176 60.2542 47.5091 59.4462L48.444 56.3383C48.6249 55.832 49.208 55.6342 49.7307 55.9025L52.7834 57.6291C53.6177 58.0548 54.4085 57.3005 54.0332 56.4389L47.4488 41.3889" stroke="#292929" stroke-width="2" stroke-miterlimit="10"/>
<path d="M40.945 44.1817L34.3338 59.292C33.9551 60.1569 32.7823 60.2542 32.4908 59.4462L31.5559 56.3383C31.375 55.832 30.7919 55.6342 30.2692 55.9025L27.2166 57.6291C26.3822 58.0548 25.5914 57.3005 25.9667 56.4389L32.5545 41.3889" stroke="#292929" stroke-width="2" stroke-miterlimit="10"/>
<defs>
<linearGradient id="paint0_linear_324_2840" x1="33.2112" y1="26.0796" x2="45.3186" y2="41.4887" gradientUnits="userSpaceOnUse">
<stop stop-color="#43CEA2"/>
<stop offset="1" stop-color="#185A9D"/>
</linearGradient>
</defs>
</svg>
