<svg width="73" height="50" viewBox="0 0 73 50" fill="none" xmlns="http://www.w3.org/2000/svg">
<g clip-path="url(#clip0_1541_4011)">
<mask id="mask0_1541_4011" style="mask-type:luminance" maskUnits="userSpaceOnUse" x="0" y="0" width="73" height="50">
<path d="M72.234 0.0727539H0V49.2253H72.234V0.0727539Z" fill="white"/>
</mask>
<g mask="url(#mask0_1541_4011)">
<path d="M21.4898 32.5075L23.6848 39.6181C24.178 41.2325 24.3837 42.3595 24.3012 43.0018C25.5018 39.7919 26.3405 36.2937 26.8178 32.5075H29.4572C28.3223 38.6714 26.8253 43.1507 24.9674 45.9449C23.5197 48.0982 21.9338 49.1747 20.2069 49.1747C19.7465 49.1747 19.1788 49.0359 18.5052 48.7602V47.2743C18.8343 47.3225 19.2204 47.3482 19.6645 47.3482C20.4701 47.3482 21.1195 47.1253 21.6135 46.6803C22.205 46.1383 22.5011 45.529 22.5011 44.8537C22.5011 44.3926 22.2701 43.4463 21.8104 42.0148L18.7521 32.5075H21.4898ZM4.69047 28.1372L8.71091 40.3839H8.73569L12.7808 28.1372H16.0858C16.8094 34.2107 17.2369 39.7677 17.368 44.8048H14.5817C14.4837 40.0962 14.2121 35.6685 13.768 31.5209H13.7437L9.50075 44.8048H7.37879L3.16144 31.5209H3.13661C2.82372 35.5042 2.62679 39.9319 2.54469 44.8048H0.00378418C0.167987 38.8784 0.578917 33.323 1.23657 28.1372H4.69047Z" fill="#00758F"/>
<path d="M49.7298 27.8896C54.0545 27.8896 56.2169 30.648 56.2169 36.1623C56.2169 39.1588 55.5666 41.4222 54.2672 42.9513C54.033 43.2307 53.7742 43.4721 53.5017 43.6957L56.5622 45.2065L56.5592 45.2063L55.4725 47.0798L51.487 44.7581C50.8263 44.9535 50.0994 45.051 49.3073 45.051C47.1838 45.051 45.5976 44.4332 44.549 43.199C43.3979 41.8337 42.8225 39.6844 42.8225 36.7546C42.8225 33.7751 43.4717 31.5202 44.7715 29.9892C45.9554 28.5887 47.6084 27.8896 49.7298 27.8896ZM36.4864 27.9137C38.032 27.9137 39.4375 28.3266 40.7034 29.1496L40.0605 30.5801C38.9772 30.1203 37.9092 29.8895 36.856 29.8895C36.0014 29.8895 35.3429 30.0948 34.8839 30.508C34.4223 30.9176 34.1367 31.4446 34.1367 32.0872C34.1367 33.0744 34.8413 33.9306 36.142 34.654C36.5682 34.8865 36.9929 35.1218 37.416 35.3596L37.5131 35.4141L37.5617 35.4415L37.6589 35.496L37.7074 35.5233L37.8045 35.578C38.7892 36.1322 39.7157 36.6612 39.7157 36.6612C41.0164 37.583 41.6647 38.5658 41.6647 40.1844C41.6647 41.598 41.1458 42.7583 40.1115 43.6663C39.0765 44.5702 37.686 45.0235 35.9447 45.0235C34.3161 45.0235 32.7377 44.5018 31.2087 43.4672L31.924 42.0354C33.2397 42.6938 34.4303 43.0227 35.4994 43.0227C36.5022 43.0227 37.2871 42.7991 37.8549 42.3578C38.4216 41.9131 38.7611 41.293 38.7611 40.5068C38.7611 39.5171 38.0716 38.6711 36.8066 37.9613C36.4107 37.743 36.0159 37.5224 35.6224 37.2998L35.5254 37.2451C35.3474 37.1446 35.1681 37.043 34.9924 36.9434L34.8973 36.8893C34.0431 36.4043 33.3046 35.9805 33.3046 35.9805C32.0401 35.057 31.406 34.0662 31.406 32.4336C31.406 31.0834 31.8788 29.992 32.8231 29.1618C33.7697 28.3297 34.9909 27.9137 36.4864 27.9137ZM61.2994 28.1368V42.7541H66.5525V44.8044H58.6353V28.1369L61.2994 28.1368ZM69.4715 42.7604V43.1069H68.894V44.8026H68.4524V43.1069H67.8525V42.7604H69.4715ZM70.5379 42.7604L71.0925 44.1524L71.6018 42.7604H72.2278V44.8026H71.8117V43.2485L71.2318 44.8026H70.9318L70.351 43.2485H70.3288V44.8026H69.9351V42.7604H70.5379ZM49.4578 29.9394C46.9093 29.9394 45.6343 32.0392 45.6343 36.2363C45.6343 38.6403 45.9721 40.3836 46.6466 41.4702C47.2713 42.4758 48.2496 42.9776 49.5817 42.9776C52.1302 42.9776 53.405 40.8613 53.405 36.6308C53.405 34.2604 53.0671 32.532 52.3936 31.4449C51.7683 30.4416 50.7901 29.9394 49.4578 29.9394Z" fill="#F29111"/>
<path d="M42.778 1.10553C43.6234 -0.968454 46.5795 0.602176 47.7266 1.32665C48.0078 1.50791 48.3302 1.89084 48.6526 2.03238C49.1555 2.05211 49.658 2.0914 50.1618 2.11239C51.1066 2.33406 51.9917 2.51518 52.7362 2.93854C56.1963 4.97295 58.4488 7.04609 60.5217 10.4704C60.9647 11.1958 61.1861 11.9806 61.5479 12.7655C62.0501 13.9354 62.6144 15.1636 63.1972 16.2698C63.4582 16.7943 63.6601 17.3776 64.0225 17.8205C64.1639 18.023 64.5659 18.0827 64.8061 18.2037C65.4703 18.547 66.2749 18.8075 66.8996 19.2103C68.066 19.9365 69.1939 20.8018 70.2191 21.6876C70.6013 22.0296 70.8617 22.5137 71.2258 22.8754V23.0578C70.9026 23.1569 70.5806 23.2582 70.2583 23.3395C69.5541 23.5201 68.9305 23.4793 68.2474 23.6599C67.8254 23.7822 67.3013 23.9434 66.8587 23.9844L66.8996 24.0255C67.16 24.7685 68.569 25.3726 69.2133 25.817C69.996 26.3809 70.7212 27.0648 71.305 27.8503C71.5066 28.0507 71.7082 28.2331 71.9087 28.433C72.049 28.6354 72.0884 28.8974 72.2304 29.078V29.1391C72.0732 29.0837 71.9602 28.9781 71.8531 28.8677L71.7892 28.8011C71.7253 28.7349 71.6609 28.6698 71.5874 28.6162C71.1433 28.3134 70.7023 27.9511 70.2583 27.6696C69.4948 27.1859 68.6093 26.9053 67.8254 26.4198C67.3821 26.138 66.9597 25.817 66.5371 25.4945C66.1541 25.2118 65.7323 24.669 65.4917 24.2662C65.3499 24.0437 65.3305 23.7822 65.1685 23.6212C65.1974 23.3523 65.4442 23.2725 65.6931 23.2069L65.7504 23.1918C65.8363 23.1695 65.9204 23.1473 65.9938 23.1178C67.0396 22.6745 68.2866 22.5137 69.8966 22.5539C69.836 22.1503 68.8299 21.6474 68.5087 21.4057C67.864 20.9418 67.1814 20.4577 66.4975 20.0354C66.1351 19.8143 65.5106 19.653 65.1091 19.4722C64.5659 19.2506 63.3585 19.029 63.0575 18.6068C62.5461 17.9412 62.1788 17.1473 61.8221 16.3454L61.7251 16.1265C61.6927 16.0536 61.6602 15.9806 61.6277 15.9078C61.2063 14.942 60.6826 13.9352 60.2601 12.9464C60.0392 12.464 59.9378 12.0406 59.6958 11.578C58.2277 8.739 56.0548 6.36204 53.4204 4.69043C52.5546 4.14651 51.5894 3.64316 50.5237 3.30106C49.9199 3.11895 49.195 3.21966 48.5516 3.07994H48.1281C47.7667 2.97826 47.4649 2.59574 47.183 2.39406C46.5602 1.97183 45.9364 1.68832 45.1915 1.38707C44.9306 1.26623 44.1853 0.984834 43.9252 1.20637C43.7641 1.24679 43.6823 1.3075 43.6427 1.46889C43.4825 1.70972 43.6234 2.07253 43.7232 2.29463C44.0254 2.93826 44.4474 3.32078 44.8306 3.86469C45.1714 4.34706 45.5947 4.89098 45.8364 5.41546C46.3577 6.54288 46.6005 7.79197 47.0836 8.91925C47.2628 9.34315 47.5463 9.82552 47.807 10.2079C48.0281 10.5115 48.43 10.7309 48.5516 11.115C48.794 11.5178 48.1888 12.847 48.0487 13.269C47.5246 14.9206 47.6262 17.2165 48.2297 18.6481L48.2618 18.7236L48.294 18.8C48.5144 19.3243 48.7502 19.889 49.3361 20.0356C49.3764 19.9956 49.3361 20.0166 49.4161 19.9956C49.5578 18.8875 49.5978 17.8204 49.9804 16.9533C50.2014 16.4113 50.6428 16.0281 50.9454 15.5855C51.1471 15.7061 51.1471 16.0696 51.2673 16.3102C51.5291 16.9341 51.8103 17.6181 52.133 18.2438C52.7955 19.5326 53.5409 20.7819 54.3854 21.9092C54.6683 22.3118 55.0697 22.755 55.4316 23.1177C55.5929 23.2581 55.7734 23.3392 55.8946 23.5199H55.9341V23.5808C55.3306 23.3587 54.948 22.7354 54.4667 22.3714C53.5605 21.6874 52.4753 20.6601 51.8506 19.6743C51.5894 19.1085 51.3069 18.5661 51.0254 18.003V17.9623C50.905 18.1231 50.9454 18.2829 50.8852 18.5262C50.6239 19.5326 50.8251 20.6805 49.9199 21.0425C48.8937 21.4664 48.1283 20.3584 47.807 19.8549C46.7807 18.1837 46.4995 15.3644 47.2234 13.0886C47.3841 12.5848 47.406 11.9806 47.6867 11.5784C47.626 11.2148 47.3453 11.1154 47.183 10.8926C46.9014 10.5117 46.6603 10.0681 46.4398 9.6451C46.0163 8.819 45.7151 7.83183 45.3935 6.94581C45.2522 6.584 45.2117 6.22078 45.0708 5.87826C44.8304 5.35547 44.3873 4.83099 44.0455 4.36847C43.5826 3.70372 42.2346 2.41533 42.778 1.10553ZM49.376 5.05111C49.4297 5.10492 49.4947 5.15195 49.5618 5.19829L49.6428 5.25378C49.7507 5.32843 49.8552 5.40701 49.9193 5.51405C50.0209 5.65573 50.0397 5.79559 50.1614 5.93755C50.1614 6.42161 50.0209 6.74343 49.7371 6.94398C49.7371 6.94398 49.7178 6.96511 49.6979 6.98483C49.5371 6.66216 49.3962 6.34119 49.2343 6.01882C49.0348 5.73742 48.7528 5.51419 48.5902 5.19266H48.5512V5.15224C48.794 5.09239 49.0348 5.05111 49.376 5.05111Z" fill="#00758F"/>
</g>
</g>
<defs>
<clipPath id="clip0_1541_4011">
<rect width="73" height="50" fill="white"/>
</clipPath>
</defs>
</svg>
