<svg width="32" height="32" viewBox="0 0 32 32" fill="none" xmlns="http://www.w3.org/2000/svg">
<g clip-path="url(#clip0_549_12977)">
<path d="M29.15 5.52569C24.7472 4.31932 20.3186 2.44089 16.3428 0.0935154C16.1316 -0.0311718 15.8695 -0.0311718 15.6584 0.0935154C11.5679 2.50832 7.37852 4.28513 2.85072 5.52569C2.55822 5.60576 2.35547 5.87163 2.35547 6.17494V13.0528C2.35547 20.1355 5.6229 24.8237 8.36402 27.5094C11.315 30.401 14.7525 32 16.0006 32C17.2485 32 20.686 30.401 23.637 27.5094C26.378 24.8238 29.6453 20.1355 29.6453 13.0528V6.17488C29.6453 5.87163 29.4425 5.60576 29.15 5.52569ZM28.299 13.0527C28.299 19.6679 25.2515 24.0426 22.6947 26.5477C19.7928 29.3911 16.6901 30.6536 16.0006 30.6536C15.311 30.6536 12.2081 29.3911 9.30614 26.5477C6.74946 24.0425 3.70178 19.6679 3.70178 13.0527V6.68588C8.03165 5.45651 12.064 3.74082 16.0007 1.45314C19.8391 3.68013 24.0726 5.48113 28.299 6.68563V13.0527Z" fill="#00BEC5"/>
<path d="M10.0337 6.6107C9.89744 6.26476 9.50662 6.09482 9.16062 6.23114C7.95813 6.70495 6.72388 7.14107 5.49219 7.52745C5.21151 7.61557 5.02051 7.87557 5.02051 8.16969V10.7691C5.02051 11.1409 5.32194 11.4423 5.69363 11.4423C6.06532 11.4423 6.36675 11.1409 6.36675 10.7691V8.66163C7.47169 8.30413 8.57544 7.90869 9.65412 7.48363C10.0001 7.34745 10.17 6.95663 10.0337 6.6107Z" fill="#00BEC5"/>
<path d="M11.3124 6.73826C11.4027 6.73826 11.4944 6.72007 11.5823 6.6817L11.5947 6.67632C11.9352 6.52707 12.0886 6.13064 11.9394 5.7902C11.79 5.44964 11.3913 5.29558 11.0511 5.4447L11.0402 5.44939C10.6995 5.5982 10.5456 5.99432 10.6944 6.33495C10.8049 6.58782 11.0527 6.73826 11.3124 6.73826Z" fill="#00BEC5"/>
<path d="M24.02 21.7053C23.7089 21.5019 23.2918 21.5894 23.0882 21.9006C22.5335 22.7496 21.8828 23.5626 21.1538 24.3168C20.5543 24.9369 19.9046 25.5149 19.223 26.0346C18.9274 26.2599 18.8705 26.6823 19.0958 26.978C19.2284 27.1517 19.4288 27.2431 19.6316 27.2431C19.774 27.2431 19.9174 27.1981 20.0393 27.1051C20.7746 26.5444 21.4752 25.9211 22.1216 25.2525C22.9098 24.4373 23.6141 23.5573 24.2153 22.6369C24.4187 22.3257 24.3311 21.9086 24.02 21.7053Z" fill="#00BEC5"/>
<path d="M17.6598 27.0901L17.6212 27.1129C17.2995 27.2992 17.1896 27.7109 17.3758 28.0326C17.5006 28.2482 17.7266 28.3686 17.959 28.3686C18.0734 28.3686 18.1895 28.3394 18.2956 28.2779L18.3401 28.2517C18.6609 28.0638 18.7687 27.6515 18.5808 27.3307C18.3928 27.01 17.9804 26.9024 17.6598 27.0901Z" fill="#00BEC5"/>
<path d="M11.4132 14.6262C10.9999 14.2128 10.4502 13.9853 9.86559 13.9853C9.28097 13.9853 8.73122 14.2129 8.31772 14.6262C7.46441 15.4797 7.46441 16.8685 8.31772 17.7219L12.2925 21.6965C12.7058 22.1098 13.2555 22.3373 13.8402 22.3373C14.4249 22.3373 14.9746 22.1098 15.388 21.6964L23.6856 13.3988C24.5388 12.5451 24.5388 11.1565 23.6854 10.3033C23.2721 9.88998 22.7224 9.66248 22.1376 9.66248C21.5529 9.66248 21.0033 9.89004 20.5898 10.3033L13.8401 17.053L11.4132 14.6262ZM21.5418 11.2553C21.7009 11.0963 21.9126 11.0087 22.1377 11.0087C22.3629 11.0087 22.5744 11.0963 22.7336 11.2553C23.0621 11.5838 23.0621 12.1184 22.7335 12.447L14.4361 20.7445C14.277 20.9035 14.0653 20.9911 13.8402 20.9911C13.6151 20.9911 13.4034 20.9035 13.2443 20.7445L9.26965 16.77C8.94109 16.4414 8.94109 15.9068 9.26953 15.5783C9.42865 15.4193 9.64034 15.3316 9.86553 15.3316C10.0907 15.3316 10.3023 15.4192 10.4613 15.5782L13.3641 18.4811C13.4905 18.6073 13.6616 18.6782 13.8401 18.6782C14.0187 18.6782 14.1898 18.6073 14.316 18.4811L21.5418 11.2553Z" fill="#00BEC5"/>
</g>
<defs>
<clipPath id="clip0_549_12977">
<rect width="32" height="32" fill="white"/>
</clipPath>
</defs>
</svg>
